<mxfile host="app.diagrams.net" agent="Mozilla/5.0 (Windows NT 10.0; Win64; x64) AppleWebKit/537.36 (KHTML, like Gecko) Chrome/127.0.0.0 Safari/537.36" version="24.7.6" pages="2">
  <diagram name="Page-1" id="J8hDbicIYL4ZWAaXkOxA">
    <mxGraphModel dx="1969" dy="868" grid="1" gridSize="10" guides="1" tooltips="1" connect="1" arrows="1" fold="1" page="1" pageScale="1" pageWidth="850" pageHeight="1100" math="0" shadow="0">
      <root>
        <mxCell id="0" />
        <mxCell id="1" parent="0" />
        <mxCell id="-mcJHVbfi0ed8ltUfF8y-4" value="" style="rounded=1;whiteSpace=wrap;html=1;" parent="1" vertex="1">
          <mxGeometry x="214.92000000000002" y="395" width="280" height="60" as="geometry" />
        </mxCell>
        <mxCell id="-mcJHVbfi0ed8ltUfF8y-5" value="GATEWAY" style="text;html=1;align=center;verticalAlign=middle;whiteSpace=wrap;rounded=0;" parent="1" vertex="1">
          <mxGeometry x="319.92" y="410" width="60" height="30" as="geometry" />
        </mxCell>
        <mxCell id="-mcJHVbfi0ed8ltUfF8y-6" value="" style="ellipse;whiteSpace=wrap;html=1;aspect=fixed;" parent="1" vertex="1">
          <mxGeometry x="160" y="40" width="80" height="80" as="geometry" />
        </mxCell>
        <mxCell id="-mcJHVbfi0ed8ltUfF8y-7" value="User" style="text;html=1;align=center;verticalAlign=middle;whiteSpace=wrap;rounded=0;" parent="1" vertex="1">
          <mxGeometry x="170" y="65" width="60" height="30" as="geometry" />
        </mxCell>
        <mxCell id="-mcJHVbfi0ed8ltUfF8y-8" value="" style="ellipse;whiteSpace=wrap;html=1;aspect=fixed;" parent="1" vertex="1">
          <mxGeometry x="309.92" y="40" width="80" height="80" as="geometry" />
        </mxCell>
        <mxCell id="-mcJHVbfi0ed8ltUfF8y-9" value="User" style="text;html=1;align=center;verticalAlign=middle;whiteSpace=wrap;rounded=0;" parent="1" vertex="1">
          <mxGeometry x="319.92" y="60" width="60" height="30" as="geometry" />
        </mxCell>
        <mxCell id="-mcJHVbfi0ed8ltUfF8y-10" value="" style="ellipse;whiteSpace=wrap;html=1;aspect=fixed;" parent="1" vertex="1">
          <mxGeometry x="479.99999999999994" y="40" width="80" height="80" as="geometry" />
        </mxCell>
        <mxCell id="-mcJHVbfi0ed8ltUfF8y-11" value="User" style="text;html=1;align=center;verticalAlign=middle;whiteSpace=wrap;rounded=0;" parent="1" vertex="1">
          <mxGeometry x="489.99999999999994" y="60" width="60" height="30" as="geometry" />
        </mxCell>
        <mxCell id="-mcJHVbfi0ed8ltUfF8y-12" value="Front-End" style="rounded=1;whiteSpace=wrap;html=1;" parent="1" vertex="1">
          <mxGeometry x="289.92" y="265" width="120" height="60" as="geometry" />
        </mxCell>
        <mxCell id="-mcJHVbfi0ed8ltUfF8y-15" value="" style="endArrow=classic;startArrow=classic;html=1;rounded=0;entryX=0.5;entryY=0;entryDx=0;entryDy=0;exitX=0.5;exitY=1;exitDx=0;exitDy=0;" parent="1" source="-mcJHVbfi0ed8ltUfF8y-6" target="-mcJHVbfi0ed8ltUfF8y-12" edge="1">
          <mxGeometry width="50" height="50" relative="1" as="geometry">
            <mxPoint x="260" y="260" as="sourcePoint" />
            <mxPoint x="310" y="210" as="targetPoint" />
          </mxGeometry>
        </mxCell>
        <mxCell id="-mcJHVbfi0ed8ltUfF8y-16" value="" style="endArrow=classic;startArrow=classic;html=1;rounded=0;exitX=0.5;exitY=0;exitDx=0;exitDy=0;entryX=0.5;entryY=1;entryDx=0;entryDy=0;" parent="1" source="-mcJHVbfi0ed8ltUfF8y-12" edge="1">
          <mxGeometry width="50" height="50" relative="1" as="geometry">
            <mxPoint x="544.92" y="275" as="sourcePoint" />
            <mxPoint x="349.92" y="115" as="targetPoint" />
          </mxGeometry>
        </mxCell>
        <mxCell id="-mcJHVbfi0ed8ltUfF8y-17" value="" style="endArrow=classic;startArrow=classic;html=1;rounded=0;entryX=0.5;entryY=1;entryDx=0;entryDy=0;exitX=0.5;exitY=0;exitDx=0;exitDy=0;" parent="1" source="-mcJHVbfi0ed8ltUfF8y-12" target="-mcJHVbfi0ed8ltUfF8y-10" edge="1">
          <mxGeometry width="50" height="50" relative="1" as="geometry">
            <mxPoint x="544.92" y="265" as="sourcePoint" />
            <mxPoint x="574.92" y="115" as="targetPoint" />
          </mxGeometry>
        </mxCell>
        <mxCell id="-mcJHVbfi0ed8ltUfF8y-19" value="DB" style="shape=cylinder3;whiteSpace=wrap;html=1;boundedLbl=1;backgroundOutline=1;size=15;" parent="1" vertex="1">
          <mxGeometry x="324.92" y="705" width="60" height="80" as="geometry" />
        </mxCell>
        <mxCell id="-mcJHVbfi0ed8ltUfF8y-20" value="" style="rounded=1;whiteSpace=wrap;html=1;" parent="1" vertex="1">
          <mxGeometry x="294.92" y="555" width="120" height="60" as="geometry" />
        </mxCell>
        <mxCell id="-mcJHVbfi0ed8ltUfF8y-21" value="SERVICE" style="text;html=1;align=center;verticalAlign=middle;whiteSpace=wrap;rounded=0;" parent="1" vertex="1">
          <mxGeometry x="319.92" y="570" width="60" height="30" as="geometry" />
        </mxCell>
        <mxCell id="-mcJHVbfi0ed8ltUfF8y-24" value="SERVICE AUTH" style="rounded=1;whiteSpace=wrap;html=1;" parent="1" vertex="1">
          <mxGeometry x="534.92" y="470" width="120" height="60" as="geometry" />
        </mxCell>
        <mxCell id="F50HHeDUnrjXNqjcZvG7-1" value="" style="endArrow=classic;startArrow=classic;html=1;rounded=0;entryX=0;entryY=0.5;entryDx=0;entryDy=0;exitX=0.042;exitY=0.667;exitDx=0;exitDy=0;exitPerimeter=0;" parent="1" source="-mcJHVbfi0ed8ltUfF8y-20" edge="1">
          <mxGeometry width="50" height="50" relative="1" as="geometry">
            <mxPoint x="148.33333333333334" y="610" as="sourcePoint" />
            <mxPoint x="289.9200000000001" y="300" as="targetPoint" />
            <Array as="points">
              <mxPoint x="140" y="595" />
              <mxPoint x="140" y="300" />
            </Array>
          </mxGeometry>
        </mxCell>
        <mxCell id="F50HHeDUnrjXNqjcZvG7-2" value="real time connection" style="text;html=1;align=center;verticalAlign=middle;whiteSpace=wrap;rounded=0;" parent="1" vertex="1">
          <mxGeometry x="40" y="400" width="100" height="30" as="geometry" />
        </mxCell>
        <mxCell id="F50HHeDUnrjXNqjcZvG7-3" value="" style="endArrow=classic;html=1;rounded=0;exitX=0.375;exitY=1;exitDx=0;exitDy=0;exitPerimeter=0;entryX=0.429;entryY=0.033;entryDx=0;entryDy=0;entryPerimeter=0;" parent="1" source="-mcJHVbfi0ed8ltUfF8y-12" target="-mcJHVbfi0ed8ltUfF8y-4" edge="1">
          <mxGeometry width="50" height="50" relative="1" as="geometry">
            <mxPoint x="164.92000000000002" y="405" as="sourcePoint" />
            <mxPoint x="214.92000000000002" y="355" as="targetPoint" />
          </mxGeometry>
        </mxCell>
        <mxCell id="F50HHeDUnrjXNqjcZvG7-4" value="" style="endArrow=classic;html=1;rounded=0;exitX=0.426;exitY=0.99;exitDx=0;exitDy=0;exitPerimeter=0;entryX=0.337;entryY=-0.003;entryDx=0;entryDy=0;entryPerimeter=0;" parent="1" source="-mcJHVbfi0ed8ltUfF8y-4" target="-mcJHVbfi0ed8ltUfF8y-20" edge="1">
          <mxGeometry width="50" height="50" relative="1" as="geometry">
            <mxPoint x="474.92" y="565" as="sourcePoint" />
            <mxPoint x="524.92" y="515" as="targetPoint" />
          </mxGeometry>
        </mxCell>
        <mxCell id="F50HHeDUnrjXNqjcZvG7-5" value="" style="endArrow=classic;startArrow=classic;html=1;rounded=0;entryX=0.5;entryY=1;entryDx=0;entryDy=0;" parent="1" source="-mcJHVbfi0ed8ltUfF8y-19" target="-mcJHVbfi0ed8ltUfF8y-20" edge="1">
          <mxGeometry width="50" height="50" relative="1" as="geometry">
            <mxPoint x="224.92000000000002" y="735" as="sourcePoint" />
            <mxPoint x="274.92" y="685" as="targetPoint" />
          </mxGeometry>
        </mxCell>
        <mxCell id="F50HHeDUnrjXNqjcZvG7-6" value="" style="endArrow=classic;html=1;rounded=0;entryX=0.57;entryY=1;entryDx=0;entryDy=0;entryPerimeter=0;exitX=0.663;exitY=-0.01;exitDx=0;exitDy=0;exitPerimeter=0;" parent="1" source="-mcJHVbfi0ed8ltUfF8y-20" target="-mcJHVbfi0ed8ltUfF8y-4" edge="1">
          <mxGeometry width="50" height="50" relative="1" as="geometry">
            <mxPoint x="474.92" y="555" as="sourcePoint" />
            <mxPoint x="524.92" y="505" as="targetPoint" />
          </mxGeometry>
        </mxCell>
        <mxCell id="F50HHeDUnrjXNqjcZvG7-7" value="" style="endArrow=classic;html=1;rounded=0;entryX=0.715;entryY=0.997;entryDx=0;entryDy=0;entryPerimeter=0;exitX=0.573;exitY=0.003;exitDx=0;exitDy=0;exitPerimeter=0;" parent="1" source="-mcJHVbfi0ed8ltUfF8y-4" target="-mcJHVbfi0ed8ltUfF8y-12" edge="1">
          <mxGeometry width="50" height="50" relative="1" as="geometry">
            <mxPoint x="364.92" y="440" as="sourcePoint" />
            <mxPoint x="364.92" y="341" as="targetPoint" />
          </mxGeometry>
        </mxCell>
        <mxCell id="F50HHeDUnrjXNqjcZvG7-8" value="" style="endArrow=classic;html=1;rounded=0;exitX=1;exitY=0.25;exitDx=0;exitDy=0;entryX=0.672;entryY=0.043;entryDx=0;entryDy=0;entryPerimeter=0;" parent="1" source="-mcJHVbfi0ed8ltUfF8y-12" target="-mcJHVbfi0ed8ltUfF8y-24" edge="1">
          <mxGeometry width="50" height="50" relative="1" as="geometry">
            <mxPoint x="584.92" y="315" as="sourcePoint" />
            <mxPoint x="615.0800000000003" y="465.29999999999995" as="targetPoint" />
            <Array as="points">
              <mxPoint x="614.92" y="280" />
            </Array>
          </mxGeometry>
        </mxCell>
        <mxCell id="F50HHeDUnrjXNqjcZvG7-9" value="" style="endArrow=classic;html=1;rounded=0;entryX=1;entryY=0.861;entryDx=0;entryDy=0;entryPerimeter=0;exitX=0.352;exitY=0.017;exitDx=0;exitDy=0;exitPerimeter=0;" parent="1" source="-mcJHVbfi0ed8ltUfF8y-24" target="-mcJHVbfi0ed8ltUfF8y-12" edge="1">
          <mxGeometry width="50" height="50" relative="1" as="geometry">
            <mxPoint x="577.4000000000002" y="464.1600000000001" as="sourcePoint" />
            <mxPoint x="604.92" y="365" as="targetPoint" />
            <Array as="points">
              <mxPoint x="574.92" y="317" />
            </Array>
          </mxGeometry>
        </mxCell>
        <mxCell id="FoIO_apa5MGlQlbTqixV-1" value="login action" style="text;html=1;align=center;verticalAlign=middle;whiteSpace=wrap;rounded=0;" vertex="1" parent="1">
          <mxGeometry x="534.92" y="245" width="80" height="30" as="geometry" />
        </mxCell>
        <mxCell id="qIsuEZOjHuxkdMH_kNhF-1" value="" style="endArrow=classic;startArrow=classic;html=1;rounded=0;" edge="1" parent="1">
          <mxGeometry width="50" height="50" relative="1" as="geometry">
            <mxPoint x="670" y="105" as="sourcePoint" />
            <mxPoint x="670" y="25" as="targetPoint" />
          </mxGeometry>
        </mxCell>
        <mxCell id="qIsuEZOjHuxkdMH_kNhF-2" value="" style="endArrow=classic;html=1;rounded=0;" edge="1" parent="1">
          <mxGeometry width="50" height="50" relative="1" as="geometry">
            <mxPoint x="670" y="265" as="sourcePoint" />
            <mxPoint x="670" y="185" as="targetPoint" />
          </mxGeometry>
        </mxCell>
        <mxCell id="qIsuEZOjHuxkdMH_kNhF-3" value="" style="endArrow=classic;html=1;rounded=0;" edge="1" parent="1">
          <mxGeometry width="50" height="50" relative="1" as="geometry">
            <mxPoint x="700" y="185" as="sourcePoint" />
            <mxPoint x="700" y="265" as="targetPoint" />
            <Array as="points">
              <mxPoint x="700" y="225" />
            </Array>
          </mxGeometry>
        </mxCell>
        <mxCell id="qIsuEZOjHuxkdMH_kNhF-4" value="real time connection" style="text;html=1;align=center;verticalAlign=middle;whiteSpace=wrap;rounded=0;" vertex="1" parent="1">
          <mxGeometry x="690" y="45" width="110" height="30" as="geometry" />
        </mxCell>
        <mxCell id="qIsuEZOjHuxkdMH_kNhF-5" value="Request / Response" style="text;html=1;align=center;verticalAlign=middle;whiteSpace=wrap;rounded=0;" vertex="1" parent="1">
          <mxGeometry x="710" y="205" width="120" height="30" as="geometry" />
        </mxCell>
      </root>
    </mxGraphModel>
  </diagram>
  <diagram id="7QuzHfiWIMfDigdG75X3" name="Page-2">
    <mxGraphModel dx="1969" dy="868" grid="1" gridSize="10" guides="1" tooltips="1" connect="1" arrows="1" fold="1" page="1" pageScale="1" pageWidth="850" pageHeight="1100" math="0" shadow="0">
      <root>
        <mxCell id="0" />
        <mxCell id="1" parent="0" />
        <mxCell id="VnDpDue5ifwQL9TlQaeQ-1" value="System" style="swimlane;html=1;childLayout=stackLayout;startSize=20;rounded=0;shadow=0;labelBackgroundColor=none;strokeWidth=1;fontFamily=Verdana;fontSize=8;align=center;" parent="1" vertex="1">
          <mxGeometry x="20" y="100" width="620" height="840" as="geometry" />
        </mxCell>
        <mxCell id="VnDpDue5ifwQL9TlQaeQ-21" value="FRONT-END" style="swimlane;html=1;startSize=20;" parent="VnDpDue5ifwQL9TlQaeQ-1" vertex="1">
          <mxGeometry y="20" width="160" height="820" as="geometry" />
        </mxCell>
        <mxCell id="VnDpDue5ifwQL9TlQaeQ-22" value="User" style="rounded=1;whiteSpace=wrap;html=1;shadow=0;labelBackgroundColor=none;strokeWidth=1;fontFamily=Verdana;fontSize=8;align=center;" parent="VnDpDue5ifwQL9TlQaeQ-21" vertex="1">
          <mxGeometry x="30" y="65" width="100" height="60" as="geometry" />
        </mxCell>
        <mxCell id="bXYXvkxQ0xS0plyRhYqI-13" value="User" style="rounded=1;whiteSpace=wrap;html=1;shadow=0;labelBackgroundColor=none;strokeWidth=1;fontFamily=Verdana;fontSize=8;align=center;" parent="VnDpDue5ifwQL9TlQaeQ-21" vertex="1">
          <mxGeometry x="30" y="260" width="100" height="60" as="geometry" />
        </mxCell>
        <mxCell id="a605rMi7eWbO8drowD6U-4" value="action" style="text;html=1;align=center;verticalAlign=middle;whiteSpace=wrap;rounded=0;" parent="VnDpDue5ifwQL9TlQaeQ-21" vertex="1">
          <mxGeometry x="90" y="380" width="60" height="30" as="geometry" />
        </mxCell>
        <mxCell id="a605rMi7eWbO8drowD6U-6" value="No" style="text;html=1;align=center;verticalAlign=middle;whiteSpace=wrap;rounded=0;" parent="VnDpDue5ifwQL9TlQaeQ-21" vertex="1">
          <mxGeometry x="90" y="490" width="60" height="30" as="geometry" />
        </mxCell>
        <mxCell id="VnDpDue5ifwQL9TlQaeQ-23" value="GATEWAY" style="swimlane;html=1;startSize=20;" parent="VnDpDue5ifwQL9TlQaeQ-1" vertex="1">
          <mxGeometry x="160" y="20" width="160" height="820" as="geometry" />
        </mxCell>
        <mxCell id="bXYXvkxQ0xS0plyRhYqI-5" value="NO" style="text;html=1;align=center;verticalAlign=middle;whiteSpace=wrap;rounded=0;" parent="VnDpDue5ifwQL9TlQaeQ-23" vertex="1">
          <mxGeometry x="50" y="160" width="60" height="30" as="geometry" />
        </mxCell>
        <mxCell id="bXYXvkxQ0xS0plyRhYqI-7" value="Log in" style="text;html=1;align=center;verticalAlign=middle;whiteSpace=wrap;rounded=0;" parent="VnDpDue5ifwQL9TlQaeQ-23" vertex="1">
          <mxGeometry x="50" y="70" width="60" height="30" as="geometry" />
        </mxCell>
        <mxCell id="bXYXvkxQ0xS0plyRhYqI-15" value="return Token" style="text;html=1;align=center;verticalAlign=middle;whiteSpace=wrap;rounded=0;" parent="VnDpDue5ifwQL9TlQaeQ-23" vertex="1">
          <mxGeometry x="50" y="250" width="80" height="30" as="geometry" />
        </mxCell>
        <mxCell id="bXYXvkxQ0xS0plyRhYqI-16" value="GATEWAY" style="rounded=1;whiteSpace=wrap;html=1;" parent="VnDpDue5ifwQL9TlQaeQ-23" vertex="1">
          <mxGeometry x="20" y="380" width="120" height="60" as="geometry" />
        </mxCell>
        <mxCell id="bXYXvkxQ0xS0plyRhYqI-18" value="Verification" style="rhombus;whiteSpace=wrap;html=1;" parent="VnDpDue5ifwQL9TlQaeQ-23" vertex="1">
          <mxGeometry x="40" y="480" width="80" height="80" as="geometry" />
        </mxCell>
        <mxCell id="bXYXvkxQ0xS0plyRhYqI-19" value="" style="endArrow=classic;html=1;rounded=0;exitX=0.5;exitY=1;exitDx=0;exitDy=0;entryX=0.5;entryY=0;entryDx=0;entryDy=0;" parent="VnDpDue5ifwQL9TlQaeQ-23" source="bXYXvkxQ0xS0plyRhYqI-16" target="bXYXvkxQ0xS0plyRhYqI-18" edge="1">
          <mxGeometry width="50" height="50" relative="1" as="geometry">
            <mxPoint x="220" y="490" as="sourcePoint" />
            <mxPoint x="270" y="440" as="targetPoint" />
          </mxGeometry>
        </mxCell>
        <mxCell id="bXYXvkxQ0xS0plyRhYqI-22" value="Yes" style="text;html=1;align=center;verticalAlign=middle;whiteSpace=wrap;rounded=0;" parent="VnDpDue5ifwQL9TlQaeQ-23" vertex="1">
          <mxGeometry x="100" y="560" width="60" height="30" as="geometry" />
        </mxCell>
        <mxCell id="uALCnENZs-alnATQGoRl-4" value="No" style="text;html=1;align=center;verticalAlign=middle;whiteSpace=wrap;rounded=0;" parent="VnDpDue5ifwQL9TlQaeQ-23" vertex="1">
          <mxGeometry x="30" y="680" width="60" height="30" as="geometry" />
        </mxCell>
        <mxCell id="uALCnENZs-alnATQGoRl-3" value="" style="endArrow=classic;html=1;rounded=0;exitX=0;exitY=0.5;exitDx=0;exitDy=0;" parent="VnDpDue5ifwQL9TlQaeQ-23" edge="1">
          <mxGeometry width="50" height="50" relative="1" as="geometry">
            <mxPoint x="200" y="710" as="sourcePoint" />
            <mxPoint x="-100" y="520" as="targetPoint" />
            <Array as="points">
              <mxPoint x="50" y="710" />
              <mxPoint x="-100" y="710" />
            </Array>
          </mxGeometry>
        </mxCell>
        <mxCell id="VnDpDue5ifwQL9TlQaeQ-28" value="BACK-END" style="swimlane;html=1;startSize=20;" parent="VnDpDue5ifwQL9TlQaeQ-1" vertex="1">
          <mxGeometry x="320" y="20" width="160" height="820" as="geometry" />
        </mxCell>
        <mxCell id="bXYXvkxQ0xS0plyRhYqI-1" value="AUTH SERVICE" style="rounded=1;whiteSpace=wrap;html=1;shadow=0;labelBackgroundColor=none;strokeWidth=1;fontFamily=Verdana;fontSize=8;align=center;" parent="VnDpDue5ifwQL9TlQaeQ-28" vertex="1">
          <mxGeometry x="30" y="65" width="100" height="60" as="geometry" />
        </mxCell>
        <mxCell id="bXYXvkxQ0xS0plyRhYqI-3" value="Verification" style="rhombus;whiteSpace=wrap;html=1;" parent="VnDpDue5ifwQL9TlQaeQ-28" vertex="1">
          <mxGeometry x="40" y="150" width="80" height="80" as="geometry" />
        </mxCell>
        <mxCell id="bXYXvkxQ0xS0plyRhYqI-6" value="" style="endArrow=classic;html=1;rounded=0;exitX=0.5;exitY=1;exitDx=0;exitDy=0;entryX=0.5;entryY=0;entryDx=0;entryDy=0;" parent="VnDpDue5ifwQL9TlQaeQ-28" source="bXYXvkxQ0xS0plyRhYqI-1" target="bXYXvkxQ0xS0plyRhYqI-3" edge="1">
          <mxGeometry width="50" height="50" relative="1" as="geometry">
            <mxPoint x="220" y="150" as="sourcePoint" />
            <mxPoint x="270" y="100" as="targetPoint" />
          </mxGeometry>
        </mxCell>
        <mxCell id="bXYXvkxQ0xS0plyRhYqI-20" value="score service" style="rounded=1;whiteSpace=wrap;html=1;" parent="VnDpDue5ifwQL9TlQaeQ-28" vertex="1">
          <mxGeometry x="20" y="560" width="120" height="60" as="geometry" />
        </mxCell>
        <mxCell id="a605rMi7eWbO8drowD6U-2" value="get top score" style="text;html=1;align=center;verticalAlign=middle;whiteSpace=wrap;rounded=0;" parent="VnDpDue5ifwQL9TlQaeQ-28" vertex="1">
          <mxGeometry x="80" y="350" width="60" height="30" as="geometry" />
        </mxCell>
        <mxCell id="uALCnENZs-alnATQGoRl-1" value="excuation" style="rhombus;whiteSpace=wrap;html=1;" parent="VnDpDue5ifwQL9TlQaeQ-28" vertex="1">
          <mxGeometry x="40" y="670" width="80" height="80" as="geometry" />
        </mxCell>
        <mxCell id="uALCnENZs-alnATQGoRl-2" value="" style="endArrow=classic;html=1;rounded=0;exitX=0.5;exitY=1;exitDx=0;exitDy=0;entryX=0.5;entryY=0;entryDx=0;entryDy=0;" parent="VnDpDue5ifwQL9TlQaeQ-28" source="bXYXvkxQ0xS0plyRhYqI-20" target="uALCnENZs-alnATQGoRl-1" edge="1">
          <mxGeometry width="50" height="50" relative="1" as="geometry">
            <mxPoint x="-80" y="690" as="sourcePoint" />
            <mxPoint x="-30" y="640" as="targetPoint" />
          </mxGeometry>
        </mxCell>
        <mxCell id="VnDpDue5ifwQL9TlQaeQ-37" value="DATABAE" style="swimlane;html=1;startSize=20;" parent="VnDpDue5ifwQL9TlQaeQ-1" vertex="1">
          <mxGeometry x="480" y="20" width="140" height="820" as="geometry" />
        </mxCell>
        <mxCell id="bXYXvkxQ0xS0plyRhYqI-23" value="DB score" style="shape=cylinder3;whiteSpace=wrap;html=1;boundedLbl=1;backgroundOutline=1;size=15;" parent="VnDpDue5ifwQL9TlQaeQ-37" vertex="1">
          <mxGeometry x="50" y="550" width="60" height="80" as="geometry" />
        </mxCell>
        <mxCell id="uALCnENZs-alnATQGoRl-6" value="Yes" style="text;html=1;align=center;verticalAlign=middle;whiteSpace=wrap;rounded=0;" parent="VnDpDue5ifwQL9TlQaeQ-37" vertex="1">
          <mxGeometry y="680" width="60" height="30" as="geometry" />
        </mxCell>
        <mxCell id="uALCnENZs-alnATQGoRl-7" value="DB Auth" style="shape=cylinder3;whiteSpace=wrap;html=1;boundedLbl=1;backgroundOutline=1;size=15;" parent="VnDpDue5ifwQL9TlQaeQ-37" vertex="1">
          <mxGeometry x="50" y="60" width="60" height="80" as="geometry" />
        </mxCell>
        <mxCell id="bXYXvkxQ0xS0plyRhYqI-2" value="" style="endArrow=classic;html=1;rounded=0;exitX=1;exitY=0.5;exitDx=0;exitDy=0;entryX=0;entryY=0.5;entryDx=0;entryDy=0;" parent="VnDpDue5ifwQL9TlQaeQ-1" source="VnDpDue5ifwQL9TlQaeQ-22" target="bXYXvkxQ0xS0plyRhYqI-1" edge="1">
          <mxGeometry width="50" height="50" relative="1" as="geometry">
            <mxPoint x="220" y="140" as="sourcePoint" />
            <mxPoint x="270" y="90" as="targetPoint" />
          </mxGeometry>
        </mxCell>
        <mxCell id="bXYXvkxQ0xS0plyRhYqI-4" value="" style="endArrow=classic;html=1;rounded=0;exitX=0;exitY=0.5;exitDx=0;exitDy=0;entryX=0.5;entryY=1;entryDx=0;entryDy=0;" parent="VnDpDue5ifwQL9TlQaeQ-1" source="bXYXvkxQ0xS0plyRhYqI-3" target="VnDpDue5ifwQL9TlQaeQ-22" edge="1">
          <mxGeometry width="50" height="50" relative="1" as="geometry">
            <mxPoint x="340" y="300" as="sourcePoint" />
            <mxPoint x="390" y="250" as="targetPoint" />
            <Array as="points">
              <mxPoint x="80" y="210" />
            </Array>
          </mxGeometry>
        </mxCell>
        <mxCell id="bXYXvkxQ0xS0plyRhYqI-9" value="" style="endArrow=classic;html=1;rounded=0;exitX=1;exitY=0.5;exitDx=0;exitDy=0;entryX=0.013;entryY=0.439;entryDx=0;entryDy=0;entryPerimeter=0;" parent="VnDpDue5ifwQL9TlQaeQ-1" source="bXYXvkxQ0xS0plyRhYqI-1" target="uALCnENZs-alnATQGoRl-7" edge="1">
          <mxGeometry width="50" height="50" relative="1" as="geometry">
            <mxPoint x="530" y="240" as="sourcePoint" />
            <mxPoint x="500" y="115" as="targetPoint" />
          </mxGeometry>
        </mxCell>
        <mxCell id="bXYXvkxQ0xS0plyRhYqI-11" value="" style="endArrow=classic;html=1;rounded=0;exitX=-0.026;exitY=0.614;exitDx=0;exitDy=0;entryX=1;entryY=0.75;entryDx=0;entryDy=0;exitPerimeter=0;" parent="VnDpDue5ifwQL9TlQaeQ-1" source="uALCnENZs-alnATQGoRl-7" target="bXYXvkxQ0xS0plyRhYqI-1" edge="1">
          <mxGeometry width="50" height="50" relative="1" as="geometry">
            <mxPoint x="500" y="130" as="sourcePoint" />
            <mxPoint x="559.9999999999998" y="180" as="targetPoint" />
          </mxGeometry>
        </mxCell>
        <mxCell id="bXYXvkxQ0xS0plyRhYqI-14" value="" style="endArrow=classic;html=1;rounded=0;exitX=0.5;exitY=1;exitDx=0;exitDy=0;entryX=0.993;entryY=0.348;entryDx=0;entryDy=0;entryPerimeter=0;" parent="VnDpDue5ifwQL9TlQaeQ-1" source="bXYXvkxQ0xS0plyRhYqI-3" target="bXYXvkxQ0xS0plyRhYqI-13" edge="1">
          <mxGeometry width="50" height="50" relative="1" as="geometry">
            <mxPoint x="390" y="350" as="sourcePoint" />
            <mxPoint x="440" y="300" as="targetPoint" />
            <Array as="points">
              <mxPoint x="400" y="300" />
            </Array>
          </mxGeometry>
        </mxCell>
        <mxCell id="bXYXvkxQ0xS0plyRhYqI-17" value="" style="endArrow=classic;html=1;rounded=0;exitX=0.5;exitY=1;exitDx=0;exitDy=0;entryX=0;entryY=0.5;entryDx=0;entryDy=0;" parent="VnDpDue5ifwQL9TlQaeQ-1" source="bXYXvkxQ0xS0plyRhYqI-13" target="bXYXvkxQ0xS0plyRhYqI-16" edge="1">
          <mxGeometry width="50" height="50" relative="1" as="geometry">
            <mxPoint x="70" y="420" as="sourcePoint" />
            <mxPoint x="120" y="370" as="targetPoint" />
            <Array as="points">
              <mxPoint x="80" y="430" />
            </Array>
          </mxGeometry>
        </mxCell>
        <mxCell id="bXYXvkxQ0xS0plyRhYqI-21" value="" style="endArrow=classic;html=1;rounded=0;exitX=0.5;exitY=1;exitDx=0;exitDy=0;entryX=0;entryY=0.5;entryDx=0;entryDy=0;" parent="VnDpDue5ifwQL9TlQaeQ-1" source="bXYXvkxQ0xS0plyRhYqI-18" target="bXYXvkxQ0xS0plyRhYqI-20" edge="1">
          <mxGeometry width="50" height="50" relative="1" as="geometry">
            <mxPoint x="270" y="620" as="sourcePoint" />
            <mxPoint x="280" y="600" as="targetPoint" />
            <Array as="points">
              <mxPoint x="240" y="610" />
            </Array>
          </mxGeometry>
        </mxCell>
        <mxCell id="a605rMi7eWbO8drowD6U-1" value="" style="endArrow=classic;startArrow=classic;html=1;rounded=0;exitX=1;exitY=0.75;exitDx=0;exitDy=0;entryX=0.5;entryY=0;entryDx=0;entryDy=0;" parent="VnDpDue5ifwQL9TlQaeQ-1" source="bXYXvkxQ0xS0plyRhYqI-13" target="bXYXvkxQ0xS0plyRhYqI-20" edge="1">
          <mxGeometry width="50" height="50" relative="1" as="geometry">
            <mxPoint x="400" y="380" as="sourcePoint" />
            <mxPoint x="450" y="330" as="targetPoint" />
            <Array as="points">
              <mxPoint x="400" y="325" />
            </Array>
          </mxGeometry>
        </mxCell>
        <mxCell id="a605rMi7eWbO8drowD6U-3" value="" style="endArrow=classic;startArrow=classic;html=1;rounded=0;exitX=1;exitY=0.5;exitDx=0;exitDy=0;entryX=0;entryY=0.5;entryDx=0;entryDy=0;entryPerimeter=0;" parent="VnDpDue5ifwQL9TlQaeQ-1" source="bXYXvkxQ0xS0plyRhYqI-20" target="bXYXvkxQ0xS0plyRhYqI-23" edge="1">
          <mxGeometry width="50" height="50" relative="1" as="geometry">
            <mxPoint x="570" y="720" as="sourcePoint" />
            <mxPoint x="620" y="670" as="targetPoint" />
          </mxGeometry>
        </mxCell>
        <mxCell id="a605rMi7eWbO8drowD6U-5" value="" style="endArrow=classic;html=1;rounded=0;exitX=0;exitY=0.5;exitDx=0;exitDy=0;entryX=0.25;entryY=1;entryDx=0;entryDy=0;" parent="VnDpDue5ifwQL9TlQaeQ-1" source="bXYXvkxQ0xS0plyRhYqI-18" target="bXYXvkxQ0xS0plyRhYqI-13" edge="1">
          <mxGeometry width="50" height="50" relative="1" as="geometry">
            <mxPoint x="50" y="540" as="sourcePoint" />
            <mxPoint x="100" y="490" as="targetPoint" />
            <Array as="points">
              <mxPoint x="55" y="540" />
            </Array>
          </mxGeometry>
        </mxCell>
        <mxCell id="uALCnENZs-alnATQGoRl-5" value="" style="endArrow=classic;html=1;rounded=0;exitX=1;exitY=0.5;exitDx=0;exitDy=0;entryX=0.5;entryY=1;entryDx=0;entryDy=0;entryPerimeter=0;" parent="VnDpDue5ifwQL9TlQaeQ-1" source="uALCnENZs-alnATQGoRl-1" target="bXYXvkxQ0xS0plyRhYqI-23" edge="1">
          <mxGeometry width="50" height="50" relative="1" as="geometry">
            <mxPoint x="540" y="780" as="sourcePoint" />
            <mxPoint x="590" y="730" as="targetPoint" />
            <Array as="points">
              <mxPoint x="560" y="730" />
            </Array>
          </mxGeometry>
        </mxCell>
        <mxCell id="W2SISjyLfctUHSaYoTvr-1" value="" style="endArrow=classic;startArrow=classic;html=1;rounded=0;" edge="1" parent="1">
          <mxGeometry width="50" height="50" relative="1" as="geometry">
            <mxPoint x="680" y="280" as="sourcePoint" />
            <mxPoint x="680" y="200" as="targetPoint" />
          </mxGeometry>
        </mxCell>
        <mxCell id="W2SISjyLfctUHSaYoTvr-2" value="" style="endArrow=classic;html=1;rounded=0;" edge="1" parent="1">
          <mxGeometry width="50" height="50" relative="1" as="geometry">
            <mxPoint x="680" y="440" as="sourcePoint" />
            <mxPoint x="680" y="360" as="targetPoint" />
          </mxGeometry>
        </mxCell>
        <mxCell id="W2SISjyLfctUHSaYoTvr-3" value="" style="endArrow=classic;html=1;rounded=0;" edge="1" parent="1">
          <mxGeometry width="50" height="50" relative="1" as="geometry">
            <mxPoint x="710" y="360" as="sourcePoint" />
            <mxPoint x="710" y="440" as="targetPoint" />
            <Array as="points">
              <mxPoint x="710" y="400" />
            </Array>
          </mxGeometry>
        </mxCell>
        <mxCell id="W2SISjyLfctUHSaYoTvr-4" value="real time connection" style="text;html=1;align=center;verticalAlign=middle;whiteSpace=wrap;rounded=0;" vertex="1" parent="1">
          <mxGeometry x="700" y="220" width="110" height="30" as="geometry" />
        </mxCell>
        <mxCell id="W2SISjyLfctUHSaYoTvr-5" value="Request / Response" style="text;html=1;align=center;verticalAlign=middle;whiteSpace=wrap;rounded=0;" vertex="1" parent="1">
          <mxGeometry x="720" y="380" width="120" height="30" as="geometry" />
        </mxCell>
      </root>
    </mxGraphModel>
  </diagram>
</mxfile>
